<?xml version="1.0" encoding="UTF-8" standalone="no"?>
<svg
   xmlns:dc="http://purl.org/dc/elements/1.1/"
   xmlns:cc="http://creativecommons.org/ns#"
   xmlns:rdf="http://www.w3.org/1999/02/22-rdf-syntax-ns#"
   xmlns:svg="http://www.w3.org/2000/svg"
   xmlns="http://www.w3.org/2000/svg"
   xmlns:sodipodi="http://sodipodi.sourceforge.net/DTD/sodipodi-0.dtd"
   xmlns:inkscape="http://www.inkscape.org/namespaces/inkscape"
   enable-background="new 0 0 512 512"
   height="512px"
   id="Layer_1"
   version="1.1"
   viewBox="0 0 512 512"
   width="512px"
   xml:space="preserve"
   inkscape:version="0.48.5 r10040"
   sodipodi:docname="1414679882_page_speed.svg"><metadata
     id="metadata3023"><rdf:RDF><cc:Work
         rdf:about=""><dc:format>image/svg+xml</dc:format><dc:type
           rdf:resource="http://purl.org/dc/dcmitype/StillImage" /><dc:title></dc:title></cc:Work></rdf:RDF></metadata><defs
     id="defs3021" /><sodipodi:namedview
     pagecolor="#ffffff"
     bordercolor="#666666"
     borderopacity="1"
     objecttolerance="10"
     gridtolerance="10"
     guidetolerance="10"
     inkscape:pageopacity="0"
     inkscape:pageshadow="2"
     inkscape:window-width="1854"
     inkscape:window-height="1058"
     id="namedview3019"
     showgrid="false"
     inkscape:zoom="0.70710678"
     inkscape:cx="302.08275"
     inkscape:cy="301.42681"
     inkscape:window-x="-8"
     inkscape:window-y="-8"
     inkscape:window-maximized="1"
     inkscape:current-layer="page_x5F_speed_1_" /><g
     id="page_x5F_speed_1_"><path
       d="m 467,60.5 -1.5,0 C 310.20067,60.447521 164.45984,60.122141 50,60.5 33.500109,60.560109 19.5,73.28 19.5,89.78 l 0,331.22 c 0,16.5 14,30.5 30.5,30.5 l 417,0 c 16.5,0 29.5,-14 29.5,-30.5 l 0,-331.22 c 0,-16.5 -13,-29.28 -29.5,-29.28 z m -30.5,26 c 8.284,0 15,6.716 15,15 0,8.284 -6.716,15 -15,15 -8.284,0 -15,-6.716 -15,-15 0,-8.284 6.716,-15 15,-15 z m -41.676,0 c 8.284,0 15,6.716 15,15 0,8.284 -6.716,15 -15,15 -8.284,0 -15,-6.716 -15,-15 0,-8.284 6.716,-15 15,-15 z m -45,0 c 8.284,0 15,6.716 15,15 0,8.284 -6.716,15 -15,15 -8.284,0 -15,-6.716 -15,-15 0,-8.284 6.716,-15 15,-15 z M 481.5,421 c 0,8.271 -6.229,15.5 -14.5,15.5 l -417,0 c -8.271,0 -15.5,-7.229 -15.5,-15.5 l 0,-280.5 447,0 z"
       id="path3007"
       style="fill:#579bd3;fill-opacity:1"
       inkscape:connector-curvature="0"
       sodipodi:nodetypes="sccssssssssssssssssssssssssssccs" /><path
       d="m 263.5,204.5 c -100.516,0 -182,81 -182,182 H 92 c 0,-83 66.71,-149 149,-149 82.29,0 149,66 149,149 h 55.5 c 0,-101 -81.484,-182 -182,-182 z"
       id="path3009"
       style="fill:#00d190;fill-opacity:1"
       inkscape:connector-curvature="0" /><path
       d="m 263.5,356 c -0.51974,0 -1.94503,16.31238 2.03475,16.74623 2.78162,0.30324 8.86832,-12.45872 8.52193,-12.39824 L 214.244,300.548 c -2.7228,-2.72222 -6.91,-3.342 -9.861,-0.869 l -0.767,0.643 c -2.951,2.473 -3.07304,6.70405 -0.869,9.861 l 48.61554,69.63426 c 2.57555,-1.29384 12.0677,-4.82957 12.98875,-7.48286 1.20233,-3.4636 -15.85129,-2.35489 -15.85129,-1.3334 0,8.284 6.716,15 15,15 8.284,0 15,-6.716 15,-15 0,-8.285 -6.716,-15.001 -15,-15.001 z"
       id="path3011"
       inkscape:connector-curvature="0"
       style="fill:#00d190;fill-opacity:1"
       sodipodi:nodetypes="sscsccscsssss" /><rect
       style="fill:#579bd3;fill-opacity:1;fill-rule:evenodd;stroke:none"
       id="rect3029"
       width="145"
       height="56"
       x="36.5"
       y="108.5"
       ry="28" /></g></svg>