<?xml version="1.0" encoding="UTF-8" standalone="no"?>
<svg
   xmlns:dc="http://purl.org/dc/elements/1.1/"
   xmlns:cc="http://creativecommons.org/ns#"
   xmlns:rdf="http://www.w3.org/1999/02/22-rdf-syntax-ns#"
   xmlns:svg="http://www.w3.org/2000/svg"
   xmlns="http://www.w3.org/2000/svg"
   xmlns:sodipodi="http://sodipodi.sourceforge.net/DTD/sodipodi-0.dtd"
   xmlns:inkscape="http://www.inkscape.org/namespaces/inkscape"
   enable-background="new 0 0 512 512"
   height="512px"
   id="Layer_1"
   version="1.1"
   viewBox="0 0 512 512"
   width="512px"
   xml:space="preserve"
   inkscape:version="0.48.5 r10040"
   sodipodi:docname="page_speed_for_google_icon.svg"
   inkscape:export-filename="F:\Users\drapa\Dropbox\Удалить\AutomaticTabsCleanerSuspender_src\img\page_speed_128-google.png"
   inkscape:export-xdpi="22.5"
   inkscape:export-ydpi="22.5"><metadata
     id="metadata3023"><rdf:RDF><cc:Work
         rdf:about=""><dc:format>image/svg+xml</dc:format><dc:type
           rdf:resource="http://purl.org/dc/dcmitype/StillImage" /><dc:title></dc:title></cc:Work></rdf:RDF></metadata><defs
     id="defs3021" /><sodipodi:namedview
     pagecolor="#ffffff"
     bordercolor="#666666"
     borderopacity="1"
     objecttolerance="10"
     gridtolerance="10"
     guidetolerance="10"
     inkscape:pageopacity="0"
     inkscape:pageshadow="2"
     inkscape:window-width="1854"
     inkscape:window-height="1058"
     id="namedview3019"
     showgrid="false"
     inkscape:zoom="0.70710678"
     inkscape:cx="302.08275"
     inkscape:cy="301.42681"
     inkscape:window-x="-8"
     inkscape:window-y="-8"
     inkscape:window-maximized="1"
     inkscape:current-layer="page_x5F_speed_1_" /><g
     id="page_x5F_speed_1_"><rect
       style="fill:#ffffff;fill-opacity:1;stroke:none"
       id="rect3817"
       width="363.45288"
       height="294.15643"
       x="76.367531"
       y="114.60599"
       ry="21.2528" /><path
       d="m 424.89683,101.97607 -1.19594,0 c -123.81778,-0.0423 -240.01474,-0.30442 -331.271828,0 -13.155111,0.0484 -24.317176,10.29657 -24.317176,23.59026 l 0,266.85656 c 0,13.2937 11.161988,24.5732 24.317176,24.5732 l 332.467768,0 c 13.1552,0 23.5199,-11.2795 23.5199,-24.5732 l 0,-266.85656 c 0,-13.29369 -10.3647,-23.59026 -23.5199,-23.59026 z m -24.31718,20.94763 c 6.60469,0 11.95926,5.41093 11.95926,12.08517 0,6.67423 -5.35457,12.08517 -11.95926,12.08517 -6.60473,0 -11.95928,-5.41094 -11.95928,-12.08517 0,-6.67424 5.35455,-12.08517 11.95928,-12.08517 z m -33.22765,0 c 6.60472,0 11.95928,5.41093 11.95928,12.08517 0,6.67423 -5.35456,12.08517 -11.95928,12.08517 -6.60468,0 -11.95929,-5.41094 -11.95929,-12.08517 0,-6.67424 5.35461,-12.08517 11.95929,-12.08517 z m -35.87782,0 c 6.60471,0 11.95929,5.41093 11.95929,12.08517 0,6.67423 -5.35458,12.08517 -11.95929,12.08517 -6.6047,0 -11.95926,-5.41094 -11.95926,-12.08517 0,-6.67424 5.35456,-12.08517 11.95926,-12.08517 z m 104.98327,269.49919 c 0,6.66378 -4.96628,12.48803 -11.56062,12.48803 l -332.467768,0 c -6.594344,0 -12.357911,-5.82425 -12.357911,-12.48803 l 0,-225.99261 356.386299,0 z"
       id="path3007"
       style="fill:#579bd3;fill-opacity:1"
       inkscape:connector-curvature="0"
       sodipodi:nodetypes="sccssssssssssssssssssssssssssccs" /><path
       d="m 262.97568,214.48805 c -76.29451,0 -138.14317,61.4813 -138.14317,138.14318 h 7.96979 c 0,-62.99936 50.63479,-113.09524 113.09523,-113.09524 62.46045,0 113.09526,50.09588 113.09526,113.09524 h 42.12605 c 0,-76.66188 -61.84865,-138.14318 -138.14316,-138.14318 z"
       id="path3009"
       style="fill:#00d190;fill-opacity:1"
       inkscape:connector-curvature="0" /><path
       d="m 262.97568,329.48086 c -0.3945,0 -1.47634,12.38156 1.54443,12.71089 2.11133,0.23014 6.73131,-9.45654 6.46838,-9.41063 l -45.39954,-45.3899 c -2.06665,-2.06625 -5.24487,-2.53666 -7.48476,-0.65959 l -0.58217,0.48805 c -2.23989,1.8771 -2.33251,5.08858 -0.65958,7.48478 l 36.90056,52.85439 c 1.95492,-0.98207 9.15974,-3.66578 9.85883,-5.67971 0.91261,-2.62897 -12.03157,-1.78743 -12.03157,-1.01209 0,6.2878 5.09762,11.38542 11.38542,11.38542 6.28779,0 11.38543,-5.09762 11.38543,-11.38542 0,-6.28856 -5.09764,-11.38619 -11.38543,-11.38619 z"
       id="path3011"
       inkscape:connector-curvature="0"
       style="fill:#00d190;fill-opacity:1"
       sodipodi:nodetypes="sscsccscsssss" /><rect
       style="fill:#579bd3;fill-opacity:1;fill-rule:evenodd;stroke:none"
       id="rect3029"
       width="110.05914"
       height="42.5056"
       x="89.602791"
       y="142.69473"
       ry="21.2528" /></g></svg>